<svg xmlns="http://www.w3.org/2000/svg" width="1200" height="630" viewBox="0 0 1200 630" role="img" aria-labelledby="title desc">
  <title id="title">DigiClara - gestor contrasenas</title>
  <desc id="desc">Ilustracion editorial original de DigiClara para el articulo gestor contrasenas.</desc>
  <rect width="1200" height="630" fill="#FFFDF8"/>
  <rect x="42" y="42" width="1116" height="546" rx="34" fill="#F7F3EA" stroke="#2B2A27" stroke-width="3"/>
  <circle cx="980" cy="145" r="92" fill="#71806A" opacity="0.92"/>
  <circle cx="210" cy="470" r="120" fill="#DDD6C9" opacity="0.20"/>
  <path d="M170 210h530c28 0 50 22 50 50v190c0 28-22 50-50 50H170c-28 0-50-22-50-50V260c0-28 22-50 50-50Z" fill="#FFFDF8" stroke="#242421" stroke-width="4"/>
  <path d="M160 285h545" stroke="#71806A" stroke-width="18" stroke-linecap="round"/>
  <path d="M160 345h390" stroke="#DDD6C9" stroke-width="18" stroke-linecap="round"/>
  <path d="M160 405h465" stroke="#DDD6C9" stroke-width="18" stroke-linecap="round"/>
  <path d="M790 250l96-58 96 58v120c0 78-43 124-96 146-53-22-96-68-96-146V250Z" fill="#FFFDF8" stroke="#242421" stroke-width="4"/>
  <path d="M842 360l32 32 74-92" fill="none" stroke="#2B2A27" stroke-width="18" stroke-linecap="round" stroke-linejoin="round"/>
  <text x="118" y="125" fill="#242421" font-family="Arial, sans-serif" font-size="46" font-weight="700">DigiClara</text>
  <text x="118" y="565" fill="#242421" font-family="Arial, sans-serif" font-size="30" font-weight="700">gestor contrasenas</text>
</svg>
